<svg width="495" height="495" viewBox="0 0 495 495" fill="none" xmlns="http://www.w3.org/2000/svg">
<g filter="url(#filter0_ddii_193:440)">
<path d="M456 247.5C456 324.364 414.407 391.514 352.5 427.67C321.664 445.68 285.787 456 247.5 456C132.349 456 39 362.651 39 247.5C39 132.349 132.349 39 247.5 39C285.58 39 321.276 49.2086 352 67.0384C414.183 103.125 456 170.429 456 247.5Z" fill="url(#paint0_linear_193:440)"/>
<path d="M455 247.5C455 323.995 413.608 390.823 351.996 426.807C321.308 444.73 285.605 455 247.5 455C132.901 455 40 362.099 40 247.5C40 132.901 132.901 40 247.5 40C285.399 40 320.922 50.1596 351.498 67.9033C413.385 103.818 455 170.8 455 247.5Z" stroke="white" stroke-width="2"/>
</g>
<defs>
<filter id="filter0_ddii_193:440" x="0" y="0" width="495" height="495" filterUnits="userSpaceOnUse" color-interpolation-filters="sRGB">
<feFlood flood-opacity="0" result="BackgroundImageFix"/>
<feColorMatrix in="SourceAlpha" type="matrix" values="0 0 0 0 0 0 0 0 0 0 0 0 0 0 0 0 0 0 127 0" result="hardAlpha"/>
<feOffset dx="9" dy="9"/>
<feGaussianBlur stdDeviation="15"/>
<feColorMatrix type="matrix" values="0 0 0 0 1 0 0 0 0 1 0 0 0 0 1 0 0 0 0.2 0"/>
<feBlend mode="normal" in2="BackgroundImageFix" result="effect1_dropShadow_193:440"/>
<feColorMatrix in="SourceAlpha" type="matrix" values="0 0 0 0 0 0 0 0 0 0 0 0 0 0 0 0 0 0 127 0" result="hardAlpha"/>
<feOffset dx="-9" dy="-9"/>
<feGaussianBlur stdDeviation="15"/>
<feColorMatrix type="matrix" values="0 0 0 0 1 0 0 0 0 1 0 0 0 0 1 0 0 0 0.2 0"/>
<feBlend mode="normal" in2="effect1_dropShadow_193:440" result="effect2_dropShadow_193:440"/>
<feBlend mode="normal" in="SourceGraphic" in2="effect2_dropShadow_193:440" result="shape"/>
<feColorMatrix in="SourceAlpha" type="matrix" values="0 0 0 0 0 0 0 0 0 0 0 0 0 0 0 0 0 0 127 0" result="hardAlpha"/>
<feOffset dx="5" dy="5"/>
<feGaussianBlur stdDeviation="7.5"/>
<feComposite in2="hardAlpha" operator="arithmetic" k2="-1" k3="1"/>
<feColorMatrix type="matrix" values="0 0 0 0 0.534498 0 0 0 0 0.95 0 0 0 0 0.526019 0 0 0 1 0"/>
<feBlend mode="normal" in2="shape" result="effect3_innerShadow_193:440"/>
<feColorMatrix in="SourceAlpha" type="matrix" values="0 0 0 0 0 0 0 0 0 0 0 0 0 0 0 0 0 0 127 0" result="hardAlpha"/>
<feOffset dx="-5" dy="-5"/>
<feGaussianBlur stdDeviation="7.5"/>
<feComposite in2="hardAlpha" operator="arithmetic" k2="-1" k3="1"/>
<feColorMatrix type="matrix" values="0 0 0 0 0.533333 0 0 0 0 0.94902 0 0 0 0 0.52549 0 0 0 1 0"/>
<feBlend mode="normal" in2="effect3_innerShadow_193:440" result="effect4_innerShadow_193:440"/>
</filter>
<linearGradient id="paint0_linear_193:440" x1="93" y1="102.5" x2="375.5" y2="409.5" gradientUnits="userSpaceOnUse">
<stop stop-color="#35D9C5"/>
<stop offset="1" stop-color="#4ECC2F"/>
</linearGradient>
</defs>
</svg>
