<svg width="495" height="495" viewBox="0 0 495 495" fill="none" xmlns="http://www.w3.org/2000/svg">
<g filter="url(#filter0_ddii_245:220)">
<path d="M456 247.5C456 324.364 414.407 391.514 352.5 427.67C321.664 445.68 285.787 456 247.5 456C132.349 456 39 362.651 39 247.5C39 132.349 132.349 39 247.5 39C285.58 39 321.276 49.2086 352 67.0384C414.183 103.125 456 170.429 456 247.5Z" fill="url(#paint0_linear_245:220)"/>
<path d="M247.5 40C285.042 40 320.253 49.9692 350.633 67.404L246.924 246.5H40.0024C40.5409 132.361 133.234 40 247.5 40ZM40.0024 248.5H246.925L351.132 427.309C320.639 444.921 285.248 455 247.5 455C133.234 455 40.5409 362.639 40.0024 248.5ZM455 247.5C455 323.637 413.995 390.197 352.859 426.3L248.656 247.498L352.363 68.4078C413.773 104.443 455 171.157 455 247.5Z" stroke="white" stroke-width="2"/>
</g>
<path d="M177.654 142V156H174.994L168.014 147.5V156H164.814V142H167.494L174.454 150.5V142H177.654ZM187.747 156.24C186.293 156.24 184.98 155.927 183.807 155.3C182.647 154.673 181.733 153.813 181.067 152.72C180.413 151.613 180.087 150.373 180.087 149C180.087 147.627 180.413 146.393 181.067 145.3C181.733 144.193 182.647 143.327 183.807 142.7C184.98 142.073 186.293 141.76 187.747 141.76C189.2 141.76 190.507 142.073 191.667 142.7C192.827 143.327 193.74 144.193 194.407 145.3C195.073 146.393 195.407 147.627 195.407 149C195.407 150.373 195.073 151.613 194.407 152.72C193.74 153.813 192.827 154.673 191.667 155.3C190.507 155.927 189.2 156.24 187.747 156.24ZM187.747 153.48C188.573 153.48 189.32 153.293 189.987 152.92C190.653 152.533 191.173 152 191.547 151.32C191.933 150.64 192.127 149.867 192.127 149C192.127 148.133 191.933 147.36 191.547 146.68C191.173 146 190.653 145.473 189.987 145.1C189.32 144.713 188.573 144.52 187.747 144.52C186.92 144.52 186.173 144.713 185.507 145.1C184.84 145.473 184.313 146 183.927 146.68C183.553 147.36 183.367 148.133 183.367 149C183.367 149.867 183.553 150.64 183.927 151.32C184.313 152 184.84 152.533 185.507 152.92C186.173 153.293 186.92 153.48 187.747 153.48ZM149.483 180.24C148.376 180.24 147.303 180.093 146.263 179.8C145.236 179.493 144.409 179.1 143.783 178.62L144.883 176.18C145.483 176.62 146.196 176.973 147.023 177.24C147.849 177.507 148.676 177.64 149.503 177.64C150.423 177.64 151.103 177.507 151.543 177.24C151.983 176.96 152.203 176.593 152.203 176.14C152.203 175.807 152.069 175.533 151.803 175.32C151.549 175.093 151.216 174.913 150.803 174.78C150.403 174.647 149.856 174.5 149.163 174.34C148.096 174.087 147.223 173.833 146.543 173.58C145.863 173.327 145.276 172.92 144.783 172.36C144.303 171.8 144.063 171.053 144.063 170.12C144.063 169.307 144.283 168.573 144.723 167.92C145.163 167.253 145.823 166.727 146.703 166.34C147.596 165.953 148.683 165.76 149.963 165.76C150.856 165.76 151.729 165.867 152.583 166.08C153.436 166.293 154.183 166.6 154.823 167L153.823 169.46C152.529 168.727 151.236 168.36 149.943 168.36C149.036 168.36 148.363 168.507 147.923 168.8C147.496 169.093 147.283 169.48 147.283 169.96C147.283 170.44 147.529 170.8 148.023 171.04C148.529 171.267 149.296 171.493 150.323 171.72C151.389 171.973 152.263 172.227 152.943 172.48C153.623 172.733 154.203 173.133 154.683 173.68C155.176 174.227 155.423 174.967 155.423 175.9C155.423 176.7 155.196 177.433 154.743 178.1C154.303 178.753 153.636 179.273 152.743 179.66C151.849 180.047 150.763 180.24 149.483 180.24ZM160.341 168.64H155.861V166H168.061V168.64H163.581V180H160.341V168.64ZM178.725 180L176.025 176.1H175.865H173.045V180H169.805V166H175.865C177.105 166 178.178 166.207 179.085 166.62C180.005 167.033 180.711 167.62 181.205 168.38C181.698 169.14 181.945 170.04 181.945 171.08C181.945 172.12 181.691 173.02 181.185 173.78C180.691 174.527 179.985 175.1 179.065 175.5L182.205 180H178.725ZM178.665 171.08C178.665 170.293 178.411 169.693 177.905 169.28C177.398 168.853 176.658 168.64 175.685 168.64H173.045V173.52H175.685C176.658 173.52 177.398 173.307 177.905 172.88C178.411 172.453 178.665 171.853 178.665 171.08ZM195.352 177.4V180H184.512V166H195.092V168.6H187.732V171.64H194.232V174.16H187.732V177.4H195.352ZM202.53 180.24C201.423 180.24 200.35 180.093 199.31 179.8C198.283 179.493 197.456 179.1 196.83 178.62L197.93 176.18C198.53 176.62 199.243 176.973 200.07 177.24C200.896 177.507 201.723 177.64 202.55 177.64C203.47 177.64 204.15 177.507 204.59 177.24C205.03 176.96 205.25 176.593 205.25 176.14C205.25 175.807 205.116 175.533 204.85 175.32C204.596 175.093 204.263 174.913 203.85 174.78C203.45 174.647 202.903 174.5 202.21 174.34C201.143 174.087 200.27 173.833 199.59 173.58C198.91 173.327 198.323 172.92 197.83 172.36C197.35 171.8 197.11 171.053 197.11 170.12C197.11 169.307 197.33 168.573 197.77 167.92C198.21 167.253 198.87 166.727 199.75 166.34C200.643 165.953 201.73 165.76 203.01 165.76C203.903 165.76 204.776 165.867 205.63 166.08C206.483 166.293 207.23 166.6 207.87 167L206.87 169.46C205.576 168.727 204.283 168.36 202.99 168.36C202.083 168.36 201.41 168.507 200.97 168.8C200.543 169.093 200.33 169.48 200.33 169.96C200.33 170.44 200.576 170.8 201.07 171.04C201.576 171.267 202.343 171.493 203.37 171.72C204.436 171.973 205.31 172.227 205.99 172.48C206.67 172.733 207.25 173.133 207.73 173.68C208.223 174.227 208.47 174.967 208.47 175.9C208.47 176.7 208.243 177.433 207.79 178.1C207.35 178.753 206.683 179.273 205.79 179.66C204.896 180.047 203.81 180.24 202.53 180.24ZM215.283 180.24C214.177 180.24 213.103 180.093 212.063 179.8C211.037 179.493 210.21 179.1 209.583 178.62L210.683 176.18C211.283 176.62 211.997 176.973 212.823 177.24C213.65 177.507 214.477 177.64 215.303 177.64C216.223 177.64 216.903 177.507 217.343 177.24C217.783 176.96 218.003 176.593 218.003 176.14C218.003 175.807 217.87 175.533 217.603 175.32C217.35 175.093 217.017 174.913 216.603 174.78C216.203 174.647 215.657 174.5 214.963 174.34C213.897 174.087 213.023 173.833 212.343 173.58C211.663 173.327 211.077 172.92 210.583 172.36C210.103 171.8 209.863 171.053 209.863 170.12C209.863 169.307 210.083 168.573 210.523 167.92C210.963 167.253 211.623 166.727 212.503 166.34C213.397 165.953 214.483 165.76 215.763 165.76C216.657 165.76 217.53 165.867 218.383 166.08C219.237 166.293 219.983 166.6 220.623 167L219.623 169.46C218.33 168.727 217.037 168.36 215.743 168.36C214.837 168.36 214.163 168.507 213.723 168.8C213.297 169.093 213.083 169.48 213.083 169.96C213.083 170.44 213.33 170.8 213.823 171.04C214.33 171.267 215.097 171.493 216.123 171.72C217.19 171.973 218.063 172.227 218.743 172.48C219.423 172.733 220.003 173.133 220.483 173.68C220.977 174.227 221.223 174.967 221.223 175.9C221.223 176.7 220.997 177.433 220.543 178.1C220.103 178.753 219.437 179.273 218.543 179.66C217.65 180.047 216.563 180.24 215.283 180.24Z" fill="white"/>
<path d="M358.154 230V244H355.494L348.514 235.5V244H345.314V230H347.994L354.954 238.5V230H358.154ZM368.247 244.24C366.793 244.24 365.48 243.927 364.307 243.3C363.147 242.673 362.233 241.813 361.567 240.72C360.913 239.613 360.587 238.373 360.587 237C360.587 235.627 360.913 234.393 361.567 233.3C362.233 232.193 363.147 231.327 364.307 230.7C365.48 230.073 366.793 229.76 368.247 229.76C369.7 229.76 371.007 230.073 372.167 230.7C373.327 231.327 374.24 232.193 374.907 233.3C375.573 234.393 375.907 235.627 375.907 237C375.907 238.373 375.573 239.613 374.907 240.72C374.24 241.813 373.327 242.673 372.167 243.3C371.007 243.927 369.7 244.24 368.247 244.24ZM368.247 241.48C369.073 241.48 369.82 241.293 370.487 240.92C371.153 240.533 371.673 240 372.047 239.32C372.433 238.64 372.627 237.867 372.627 237C372.627 236.133 372.433 235.36 372.047 234.68C371.673 234 371.153 233.473 370.487 233.1C369.82 232.713 369.073 232.52 368.247 232.52C367.42 232.52 366.673 232.713 366.007 233.1C365.34 233.473 364.813 234 364.427 234.68C364.053 235.36 363.867 236.133 363.867 237C363.867 237.867 364.053 238.64 364.427 239.32C364.813 240 365.34 240.533 366.007 240.92C366.673 241.293 367.42 241.48 368.247 241.48ZM344.831 254C346.071 254 347.145 254.207 348.051 254.62C348.971 255.033 349.678 255.62 350.171 256.38C350.665 257.14 350.911 258.04 350.911 259.08C350.911 260.107 350.665 261.007 350.171 261.78C349.678 262.54 348.971 263.127 348.051 263.54C347.145 263.94 346.071 264.14 344.831 264.14H342.011V268H338.771V254H344.831ZM344.651 261.5C345.625 261.5 346.365 261.293 346.871 260.88C347.378 260.453 347.631 259.853 347.631 259.08C347.631 258.293 347.378 257.693 346.871 257.28C346.365 256.853 345.625 256.64 344.651 256.64H342.011V261.5H344.651ZM361.741 265H355.241L354.001 268H350.681L356.921 254H360.121L366.381 268H362.981L361.741 265ZM360.721 262.54L358.501 257.18L356.281 262.54H360.721ZM367.834 254H371.074V268H367.834V254ZM387.236 254V268H384.576L377.596 259.5V268H374.396V254H377.076L384.036 262.5V254H387.236Z" fill="white"/>
<path d="M181.654 319V333H178.994L172.014 324.5V333H168.814V319H171.494L178.454 327.5V319H181.654ZM191.747 333.24C190.293 333.24 188.98 332.927 187.807 332.3C186.647 331.673 185.733 330.813 185.067 329.72C184.413 328.613 184.087 327.373 184.087 326C184.087 324.627 184.413 323.393 185.067 322.3C185.733 321.193 186.647 320.327 187.807 319.7C188.98 319.073 190.293 318.76 191.747 318.76C193.2 318.76 194.507 319.073 195.667 319.7C196.827 320.327 197.74 321.193 198.407 322.3C199.073 323.393 199.407 324.627 199.407 326C199.407 327.373 199.073 328.613 198.407 329.72C197.74 330.813 196.827 331.673 195.667 332.3C194.507 332.927 193.2 333.24 191.747 333.24ZM191.747 330.48C192.573 330.48 193.32 330.293 193.987 329.92C194.653 329.533 195.173 329 195.547 328.32C195.933 327.64 196.127 326.867 196.127 326C196.127 325.133 195.933 324.36 195.547 323.68C195.173 323 194.653 322.473 193.987 322.1C193.32 321.713 192.573 321.52 191.747 321.52C190.92 321.52 190.173 321.713 189.507 322.1C188.84 322.473 188.313 323 187.927 323.68C187.553 324.36 187.367 325.133 187.367 326C187.367 326.867 187.553 327.64 187.927 328.32C188.313 329 188.84 329.533 189.507 329.92C190.173 330.293 190.92 330.48 191.747 330.48ZM125.497 357.24C124.043 357.24 122.73 356.927 121.557 356.3C120.397 355.673 119.483 354.813 118.817 353.72C118.163 352.613 117.837 351.373 117.837 350C117.837 348.627 118.163 347.393 118.817 346.3C119.483 345.193 120.397 344.327 121.557 343.7C122.73 343.073 124.043 342.76 125.497 342.76C126.95 342.76 128.257 343.073 129.417 343.7C130.577 344.327 131.49 345.193 132.157 346.3C132.823 347.393 133.157 348.627 133.157 350C133.157 351.373 132.823 352.613 132.157 353.72C131.49 354.813 130.577 355.673 129.417 356.3C128.257 356.927 126.95 357.24 125.497 357.24ZM125.497 354.48C126.323 354.48 127.07 354.293 127.737 353.92C128.403 353.533 128.923 353 129.297 352.32C129.683 351.64 129.877 350.867 129.877 350C129.877 349.133 129.683 348.36 129.297 347.68C128.923 347 128.403 346.473 127.737 346.1C127.07 345.713 126.323 345.52 125.497 345.52C124.67 345.52 123.923 345.713 123.257 346.1C122.59 346.473 122.063 347 121.677 347.68C121.303 348.36 121.117 349.133 121.117 350C121.117 350.867 121.303 351.64 121.677 352.32C122.063 353 122.59 353.533 123.257 353.92C123.923 354.293 124.67 354.48 125.497 354.48ZM148.583 343L142.523 357H139.323L133.283 343H136.783L141.043 353L145.363 343H148.583ZM160.592 354.4V357H149.752V343H160.332V345.6H152.972V348.64H159.472V351.16H152.972V354.4H160.592ZM172.09 357L169.39 353.1H169.23H166.41V357H163.17V343H169.23C170.47 343 171.543 343.207 172.45 343.62C173.37 344.033 174.076 344.62 174.57 345.38C175.063 346.14 175.31 347.04 175.31 348.08C175.31 349.12 175.056 350.02 174.55 350.78C174.056 351.527 173.35 352.1 172.43 352.5L175.57 357H172.09ZM172.03 348.08C172.03 347.293 171.776 346.693 171.27 346.28C170.763 345.853 170.023 345.64 169.05 345.64H166.41V350.52H169.05C170.023 350.52 170.763 350.307 171.27 349.88C171.776 349.453 172.03 348.853 172.03 348.08ZM183.937 343C185.177 343 186.25 343.207 187.157 343.62C188.077 344.033 188.783 344.62 189.277 345.38C189.77 346.14 190.017 347.04 190.017 348.08C190.017 349.107 189.77 350.007 189.277 350.78C188.783 351.54 188.077 352.127 187.157 352.54C186.25 352.94 185.177 353.14 183.937 353.14H181.117V357H177.877V343H183.937ZM183.757 350.5C184.73 350.5 185.47 350.293 185.977 349.88C186.483 349.453 186.737 348.853 186.737 348.08C186.737 347.293 186.483 346.693 185.977 346.28C185.47 345.853 184.73 345.64 183.757 345.64H181.117V350.5H183.757ZM200.847 354H194.347L193.107 357H189.787L196.027 343H199.227L205.487 357H202.087L200.847 354ZM199.827 351.54L197.607 346.18L195.387 351.54H199.827ZM212.8 352.04V357H209.56V352L204.14 343H207.58L211.32 349.22L215.06 343H218.24L212.8 352.04ZM219.459 343H222.699V357H219.459V343ZM238.861 343V357H236.201L229.221 348.5V357H226.021V343H228.701L235.661 351.5V343H238.861ZM251.634 349.78H254.594V355.46C253.834 356.033 252.954 356.473 251.954 356.78C250.954 357.087 249.947 357.24 248.934 357.24C247.48 357.24 246.174 356.933 245.014 356.32C243.854 355.693 242.94 354.833 242.274 353.74C241.62 352.633 241.294 351.387 241.294 350C241.294 348.613 241.62 347.373 242.274 346.28C242.94 345.173 243.86 344.313 245.034 343.7C246.207 343.073 247.527 342.76 248.994 342.76C250.22 342.76 251.334 342.967 252.334 343.38C253.334 343.793 254.174 344.393 254.854 345.18L252.774 347.1C251.774 346.047 250.567 345.52 249.154 345.52C248.26 345.52 247.467 345.707 246.774 346.08C246.08 346.453 245.54 346.98 245.154 347.66C244.767 348.34 244.574 349.12 244.574 350C244.574 350.867 244.767 351.64 245.154 352.32C245.54 353 246.074 353.533 246.754 353.92C247.447 354.293 248.234 354.48 249.114 354.48C250.047 354.48 250.887 354.28 251.634 353.88V349.78Z" fill="white"/>
<defs>
<filter id="filter0_ddii_245:220" x="0" y="0" width="495" height="495" filterUnits="userSpaceOnUse" color-interpolation-filters="sRGB">
<feFlood flood-opacity="0" result="BackgroundImageFix"/>
<feColorMatrix in="SourceAlpha" type="matrix" values="0 0 0 0 0 0 0 0 0 0 0 0 0 0 0 0 0 0 127 0" result="hardAlpha"/>
<feOffset dx="9" dy="9"/>
<feGaussianBlur stdDeviation="15"/>
<feColorMatrix type="matrix" values="0 0 0 0 1 0 0 0 0 1 0 0 0 0 1 0 0 0 0.2 0"/>
<feBlend mode="normal" in2="BackgroundImageFix" result="effect1_dropShadow_245:220"/>
<feColorMatrix in="SourceAlpha" type="matrix" values="0 0 0 0 0 0 0 0 0 0 0 0 0 0 0 0 0 0 127 0" result="hardAlpha"/>
<feOffset dx="-9" dy="-9"/>
<feGaussianBlur stdDeviation="15"/>
<feColorMatrix type="matrix" values="0 0 0 0 1 0 0 0 0 1 0 0 0 0 1 0 0 0 0.2 0"/>
<feBlend mode="normal" in2="effect1_dropShadow_245:220" result="effect2_dropShadow_245:220"/>
<feBlend mode="normal" in="SourceGraphic" in2="effect2_dropShadow_245:220" result="shape"/>
<feColorMatrix in="SourceAlpha" type="matrix" values="0 0 0 0 0 0 0 0 0 0 0 0 0 0 0 0 0 0 127 0" result="hardAlpha"/>
<feOffset dx="5" dy="5"/>
<feGaussianBlur stdDeviation="7.5"/>
<feComposite in2="hardAlpha" operator="arithmetic" k2="-1" k3="1"/>
<feColorMatrix type="matrix" values="0 0 0 0 0.534498 0 0 0 0 0.95 0 0 0 0 0.526019 0 0 0 1 0"/>
<feBlend mode="normal" in2="shape" result="effect3_innerShadow_245:220"/>
<feColorMatrix in="SourceAlpha" type="matrix" values="0 0 0 0 0 0 0 0 0 0 0 0 0 0 0 0 0 0 127 0" result="hardAlpha"/>
<feOffset dx="-5" dy="-5"/>
<feGaussianBlur stdDeviation="7.5"/>
<feComposite in2="hardAlpha" operator="arithmetic" k2="-1" k3="1"/>
<feColorMatrix type="matrix" values="0 0 0 0 0.533333 0 0 0 0 0.94902 0 0 0 0 0.52549 0 0 0 1 0"/>
<feBlend mode="normal" in2="effect3_innerShadow_245:220" result="effect4_innerShadow_245:220"/>
</filter>
<linearGradient id="paint0_linear_245:220" x1="93" y1="102.5" x2="375.5" y2="409.5" gradientUnits="userSpaceOnUse">
<stop stop-color="#35D9C5"/>
<stop offset="1" stop-color="#4ECC2F"/>
</linearGradient>
</defs>
</svg>
